# xmcd CD database file
#
# Track frame offsets:
#	150
#	5969
#	9994
#	13974
#	17415
#	40309
#	108775
#	149464
#	189920
#	224528
#	262261
#
# Disc length: 3855 seconds
#
# Revision: 2
# Processed by: cddbd v1.5.1PL2 Copyright (c) Steve Scherf et al.
# Submitted via: freedbtool 1.11
#
DISCID=960f0d0b
DTITLE=Albert King with Stevie Ray Vaughan - Albert King with Stevie Ray Vaughan: In Session
DYEAR=1900
DGENRE=Blues
TTITLE0=Call it stormy monday
TTITLE1=Old times
TTITLE2=Pride and joy
TTITLE3=Ask me no questions
TTITLE4=Pep talk
TTITLE5=Blues at sunrise
TTITLE6=Turn it over
TTITLE7=Overall junction
TTITLE8=Match box blues
TTITLE9=Who is Stevie
TTITLE10=Don't lie to me
EXTD=
EXTT0=
EXTT1=
EXTT2=
EXTT3=
EXTT4=
EXTT5=
EXTT6=
EXTT7=
EXTT8=
EXTT9=
EXTT10=
PLAYORDER=
